<svg xmlns="http://www.w3.org/2000/svg" viewBox="0 0 400 400"><g><g fill="#000000"><path d="M141.54 300.2a72.66 72.66 0 0 1 10.22-2.8l.42 1.54a.78.78 0 0 0 .84.58l13.74-1.6c3.78-8.62 10.72-21.68 10.82-21.88-.1-3.26 0-6 0-9.12-7.86 2.92-22.4 8.46-30 12a.98.98 0 0 0-.42 1.06s.14.5.32 1.22c-3.72 0-14.86-.54-17.54 2a3.12 3.12 0 0 0-.58 2c-.16 2.76 1.22 24.2 3.42 30.5 1.14 3.3 3.54 2.94 5.18-.22a54.58 54.58 0 0 0 3.62-14.86c0-.26-.06-.24-.04-.42zm-2.3-17.9c2.44-.2 3.2-.16 8.44-.32.94 3.56 2.88 10.88 3.88 14.62a71.84 71.84 0 0 0-10.42 2.42 109.3 109.3 0 0 1-1.9-16.72zm92.88-75.4z"></path><path d="M325.62 107.26c.5-.7-.14-1.6-.68-2.3a30.14 30.14 0 0 1 5.06-4.18 32.54 32.54 0 0 0 8.38-6c1.02-1.06 2.94-3.24 2.22-4.52s-2-1.36-3.74-.62a9.74 9.74 0 0 0 1.82-2.7c.56-1.56-.76-2.82-3.62-1.66 1.04-1.66 1.28-3.4-.48-4.24-1.42-.68-3.5.94-4.7 2a68.2 68.2 0 0 0-6.62 6.64C322 87.04 320 84 317.5 84.96s-.56 5.26.72 7.6l-4.54 3.14a4.22 4.22 0 0 0-2.24-.5c-5.16.88-28.86 18.92-31.26 18.92-1.84 0-28.12-12.6-50.84-16.24a.76.76 0 0 0-.62-.52 64 64 0 0 0-12-.9.84.84 0 0 0-.62.34l-1.68 0c-.4-1.62-1.88-5.36-2.4-6.8 1.36-1.18 3.24-1.78 4.22-3.68 1.8-3.52 1.72-9.64 1.22-13.56 2.26-1.72 2.32-4.48 1.8-7.3-.2-1.14-.82-3.72-1.78-4.36-.54-.36-1.68 0-2.66.36-.98-2.28-.98-1.24-.58-2.16a3.88 3.88 0 0 0 .32-1.34c1.06.32 3.26-1.8 2.5-4.6a17.76 17.76 0 0 0-1.46-2.88c.28-.68.88-1.5-1-4a6 6 0 0 0-3.02-1.76l-.92 0a5.1 5.1 0 0 0-2.76-2 6.66 6.66 0 0 0-5 .7c-.4.3-.72.7-1.12.98a5.78 5.78 0 0 0-6 0 4.22 4.22 0 0 0-2.36 2.32 7.46 7.46 0 0 0-6 .5 15.04 15.04 0 0 0-7.2 8.78 14.92 14.92 0 0 0 0 1.7l-.22 0c-3-.44-6.82 6.68-3.76 12.22.36.66.82 1.28 1.26 2 1.28 2 .78 2.6 3.64 5.04.84.72.98.66 1.5 1.1s.32.22.62 1.34a5.14 5.14 0 0 0 2.36 3.18 9.2 9.2 0 0 0 2.38 5.24 6.18 6.18 0 0 0 1.46 1.2 1.1 1.1 0 0 0 .48.14c.6 3.72 1.34 8.56 1.66 10.62l-1.78.96a57.34 57.34 0 0 0-6.78 3.26.84.84 0 0 0-.34.5c-2.12 1.12-4.12 2.18-5.26 2.86-15.88 9.42-60.98 71.52-61.44 74.36a.84.84 0 0 0 0 .5 13.04 13.04 0 0 0 2.34 2.78 7.76 7.76 0 0 1-1 1.42c-4 2.62-10 6.52-13.22 10a1.74 1.74 0 0 0 .58 2.94c.6.2.7.14 4.6-2a10.88 10.88 0 0 0-2.58 3.36c-.26 1.1.74 1.74 2 1.54a6.94 6.94 0 0 0 2-.88 3.44 3.44 0 0 0 0 3.74c2 2.52 7.24-5.42 10-7.38 1.12 1.42 2.64 4.74 5.06 3.86 2.1-.78-.2-5.4 0-6.74a23.54 23.54 0 0 1 2.6-2.16 13.84 13.84 0 0 0 5.18 2.38c3.3 0 37.74-34.76 40.36-37.54-.94 8.84-5.68 46.78-4.68 54.16.46 3.34 8.48 3.82 11.86 4-1.02 24-1.7 60.36-1.88 60.74-5.3 11.42-6.74 14.54-8.52 18-3.24 6.2-16.88 29.08-18.42 34.28-.22.82-.24 1.14.62 2.66a83.38 83.38 0 0 0-7.16 8.62c-1.1 2 3.62 20.64 6.96 27.24.76 1.48 2 3.76 3.66 3.7 5-.18 4.98-18.14 4.84-23.16a.64.64 0 0 0-.16-.42 39.78 39.78 0 0 1 2.96-3.88 14.98 14.98 0 0 0 2 1.16c.68.3 1.44-.22 2-.68 6.66-5.24 42.58-50 50.28-71.12 3.5-9.64 8.16-22.96 9.48-32.4a73.86 73.86 0 0 0 .22-18 .32.32 0 0 1 .64 0 68.72 68.72 0 0 1 .58 18.22c-1.48 13.1-11.82 40.4-17.34 50.44 4.76-.88 14.44-2.8 19.12-4.2 15.6-4.74 30-18.88 31.26-34.76a206.36 206.36 0 0 0 0-22.46 132.46 132.46 0 0 0-4-30.62c4.24-2.3 8.12-5 9.38-7.48 2.7-5.3-4.44-35.8-6-44.36 8.54.94 23.08 2.64 29.86-2.66 7.76-6.24 24.52-23.8 34.14-37.3zm-165.5 239.42c-3.6-2.18-8.64-7.36-9.4-11.42.82-1.04 1.68-2 2.48-3.08a44.6 44.6 0 0 0 10 10.82 40.52 40.52 0 0 0-3.08 3.68zm159-253.56a.48.48 0 0 0 .16-.64c-.7-1.3-2.8-5.88-1.34-6.4.84-.32 1.58.2 2.2.9a13.58 13.58 0 0 1 2.18 4 .68.68 0 0 0 1.18.22c2-2.22 6.68-7.28 9.32-8.64 2-1.04 2.48.88-2.42 5.36a42 42 0 0 0-3.24 2.74.46.46 0 0 0 0 .54c0 .52.42 1.1 1.14.56a52.6 52.6 0 0 1 5.5-4.22 7.2 7.2 0 0 1 3.32-1.28c-.6 1.84-6.18 6.84-6.66 7.4a.78.78 0 0 0 1.02 1.18c2.22-1.44 6.1-4.8 7.44-4.3s-2.64 4.22-3.64 5.1c-5.74 4.98-4.26 1.78-10.9 8.54a46 46 0 0 0-9.86-8.16zm-86.9 95.66c-.34-2.76-.76-5.74-1.28-8.84l.86-1.14c4-5.14 5.2-13.32 4.82-19.74 2.14 9.38 3.84 18.6 5.14 27.76zm-29.74-68.48c-5.26-4-13.72-10.9-18.64-15.62l8-4a101.72 101.72 0 0 1 18.66 23.48 174.78 174.78 0 0 1 16.94 44.9l-28.52-40.34 3.72-7.72a.62.62 0 0 0-.16-.7zM216 97.62c.12.22 1.5 3.16 3.6 8.3 0 .22-.38 5.22-.56 6.98a31.14 31.14 0 0 1-7.16-4c.44-1.74 2.42-9.64 2.56-11.42zm-7.1 21.48c.14-.36.28-.84.44-1.4l1.34.7c.76.5.46-1.02 1.14 3.38 0 .74.2 1.56.24 2.46-.92-1.66-2.06-3.44-3.14-5.14zm-1.12-1.68a99.1 99.1 0 0 0-12.84-14.84l15.06 6.54c-.58 1.38-1.42 5.6-2.2 8.3zm15.38 11.72c-2-5.46-3.54-11.56-4.3-13.16a8.32 8.32 0 0 0 0-1.5 3.36 3.36 0 0 0 .9.2.8.8 0 0 0 .8-.68c.16-.66.42-4 .46-4.74a364.54 364.54 0 0 1 14.54 45.06c-11.3-24.04-9.56-17.08-12.38-25.18zm16.54 38.18C235.14 145.46 227.12 118.2 218 98a63.34 63.34 0 0 1 10 .8c1.7 15.2.28 14.68 1.42 15.28s8 3.36 9.02 3.78c-.1 1.54 1.34 45.58 1.28 49.46zM216.68 62.38a13.08 13.08 0 0 1 1.06 7.28A3.52 3.52 0 0 1 211.6 71a28.8 28.8 0 0 1-2.14-6.3c.54-.7 6.3-2.1 7.22-2.32zm-27.52 20a22.76 22.76 0 0 0-2.24-.88 3.62 3.62 0 0 1-1.52-5.52c1.26-1.06 2.4-1 3.44.58.66 1.22.64 1.32.94 1.44a.66.66 0 0 0 .9-.42 9.82 9.82 0 0 0 .14-3.82c-.24-1.38-.28-7.5-.24-7.7a3.68 3.68 0 0 0 1.9.42c3.62-.14 4.34-2 5.78-3.52 1.66.16 2 .96 3.88 0a11.08 11.08 0 0 0 2.4-1.84 11.66 11.66 0 0 1 1.66.84 6.22 6.22 0 0 0 7.26-1.38c.22.42.42.84.6 1.28a17.36 17.36 0 0 0-5.12 2.58c-.34.42.16 2.7.28 3.24a13.54 13.54 0 0 0-4.78 1.54c-.3-1.04-.96-2.98-2-3.52a1.64 1.64 0 0 0-.96 0c-1.8.28-8.26 2.22-9.04 3.28-.68.74 1.26 6.46 1.86 7.4 2.3 3.56 9.04 2.52 10.3-1.64a9.72 9.72 0 0 0 0-4.24c.58 0 2.32-.62 2.52-.68 1.38 3.1 1.78 3.28 3.38 6.62-.22.18-.58.48-.88.68-1.42.94-1.72.78-1.64 1.18a.34.34 0 0 0 .38.24 9.78 9.78 0 0 0 2.44-.68 2 2 0 0 0 1.08-.96c.56-1.26-2.54-6-3.76-7.42.24 0 .8-.4 1.22-.62.56 2.24.94 4 3.1 4.88a4.96 4.96 0 0 0 3.88-.16c.32 3.52.26 9.24-1.42 12.36-.86 1.62-2.98 2.24-4.34 3.58-.4.38-.14.92 0 1.5 2.22 6.18 2.26 6.16 2.14 6.96a71.74 71.74 0 0 1-2.46 9.8c-.5-.22-6.12-3.2-17.12-7.48-.34-2.26-2.16-14.32-2.74-16.54.04-.78-.06-.96-1.22-1.48zm14-8.16c-.64 2.18-3.66 3.12-5.82 2.52s-2.3-1.7-3.32-4.3a11.3 11.3 0 0 1-.98-3.14c.66-.72 7.88-2.2 8.78-2.34a10.8 10.8 0 0 1 1.34 7.16zM124.9 194.3c-.76.74.26 3.16.42 5.26 0 .18 0 .96-.12 1.02-1.1.36-2.12-1.3-2.74-2.3s-1.24-2.36-2.22-2c-2 .94-6.64 7.1-8.46 7.74-.92-1.76 4.34-6.78 4.52-7.06a.82.82 0 0 0-.76-1.24c-.36 0-.6.32-1.16.82a23.14 23.14 0 0 1-5.78 4.12 70.96 70.96 0 0 1 6.18-6.26.86.86 0 0 0 .22-.4s-.42-1.06-1.24-.64c-1.16.64-6.8 3.9-8.58 4.74-.24-.16-.1-.4 0-.64C108 194 114.2 189.8 118 187.14a6.12 6.12 0 0 0 1.1-1.56 73.64 73.64 0 0 0 8.4 6.74 23.2 23.2 0 0 0-2.6 1.98zm46.54 18.18c-.44-.28-.76-.54-.82-.9-1.1-8.16 5.02-54.4 4.92-56.22a.8.8 0 0 0-.82-.8c-1.02 0 .78 0-24.7 24.4-1.68 1.58-14.52 13.86-16.66 14.68-2.94-.22-14-9.04-15.8-11.82 3.48-7.04 45.68-64.96 60.28-73.82 1.12-.68 3.04-1.74 5.14-2.86a17.7 17.7 0 0 0 2.34 1.86c4.64 4.4 11.1 9.88 16 14l-3.82 7.58a.66.66 0 0 0 0 .66c31.02 44.5 30.56 44 30.76 44a215.6 215.6 0 0 1 3.7 31.16c0 2.82 0 2.58.12 2.38s0 .14 0 .14c-4.84 5.28-52.74 10.2-60.64 5.56zM282 146.22c-9.06 1.26-19.3-.62-21.28-.7a39.42 39.42 0 0 0-6.44-14.82.32.32 0 0 0-.54.34c1.16 2.36 5.04 12.54 6 15.02-.3.96 9.04 39.58 6.4 44.78-2.36 4.7-16.1 10.62-21.06 12.32a299.84 299.84 0 0 0-4.8-33.16c.68-5.76-.2-40-.46-52.66a.78.78 0 0 0-.48-.68l-8.98-3.78a130.5 130.5 0 0 0-.9-14.22c22.42 3.88 48.54 16.7 50.72 16.72 3.16 0 26.64-18 31.5-18.72 2.16-.34 11.44 7.76 12.52 10-9.48 13.24-26.14 30.64-33.86 36.66a17.52 17.52 0 0 1-8.34 2.9z"></path><path d="M201.1 70.22a1.018 1.018 0 1 0-2 .38c.4 2 .48 2.46 1.36 2.46a1 1 0 0 0 .92-1.4c-.06-.32-.24-1.26-.28-1.44zm6.12 13.24c1.3.38 2.54-.24 2.5-.56s0-.16-1.76-.82c-1.18-.44-2.48-2-2.94-1.76s.24 1.52.4 1.76a3.46 3.46 0 0 0 1.8 1.38zm36.58-19c-2.62 10.98-4.54 20.3-4.86 22.16a6 6 0 0 0-.12 2.48c1.06 2.26 14.76 6.72 16.5 5.84s6.26-11.06 11.52-21.56a46.2 46.2 0 0 0 9.62-.7 40.8 40.8 0 0 0 9.68-3.06c6.76-3.12 14.16-16.48 15.16-23.2a35.24 35.24 0 0 0-4.42-21.02c-16.78-29.1-66-13.44-62 18.88a42.44 42.44 0 0 0 8.92 20.18zM256 88.28c0 .32-.36.28-2 0a27.46 27.46 0 0 1-9.58-3.06c-1.4-.76-1.78-.92-1.64-1.26s.44-.22 2.6.38c.2 0 6.4 2 8.18 2.62C255.86 88 256 88 256 88.28zm-.36-32.54a12.46 12.46 0 0 0 6.18-1.28A15.88 15.88 0 0 0 267.5 56c-3.36 6.26-10.18 19.02-12.38 25.82l-8.48-2.34c2-4.92 6.42-16.44 8.96-23.74zm-.7-1.66a6.9 6.9 0 0 1-5.82-6c-.56-4 2-8.48 5.86-7.42 2.42.66 2.72 2.58 2.3 5-.36 1.76-1.66 6.18-2.38 8.34zm5.44-4.8a9.3 9.3 0 0 1 1.44-3.66 3.72 3.72 0 0 1 3.48-1.84c1.48.44 2.12 3.24.9 5a15.26 15.26 0 0 1-4.3 3.88 3.26 3.26 0 0 1-1.56-3.38zM242 23.86c8.96-10.78 25.82-15.06 38-10.62a28.84 28.84 0 0 1 15.66 12.94 33.62 33.62 0 0 1 4.22 20c-.92 6.22-8 19.14-14.22 22a40.98 40.98 0 0 1-18.14 3.68c-.68 0-1.4 0-1.66.48-1.18 2.4-3.34 7.04-5.46 11.4a30.46 30.46 0 0 0-4.54-1.76c2.32-6.64 9.64-19.68 13.12-26a17.6 17.6 0 0 0 8.8-1.52 4.42 4.42 0 0 0-.38-8c-3.1-1.52-5.88 2.12-7.5 5.18-.44.8-.94 1.74-1.5 2.8a17.56 17.56 0 0 1-4.74-.98 18.26 18.26 0 0 0 4-3.84 5.54 5.54 0 0 0-.2-6.4 3.42 3.42 0 0 0-4.48-.62 8.54 8.54 0 0 0-4 8.36 4.6 4.6 0 0 0 1.42 2.38 10.52 10.52 0 0 1-4.14.8c.8-2.36 2.1-6.62 2.44-8.36a9.18 9.18 0 0 0 .14-3.02 4.56 4.56 0 0 0-3.38-3.62c-4.86-1.38-8.44 4-7.74 9.02a8.42 8.42 0 0 0 6.84 7.36C252 62.72 248 74.34 246 79.3l-4.4-1.14c2.82-14.16 3.16-13.82 2.76-14a41.18 41.18 0 0 1-8.42-20 26 26 0 0 1 6.06-20.3zm27.76 30.7c1.4-2.54 4.2-8.1 6.92-6.74a3.22 3.22 0 0 1 2 2.66c-.04 3.52-5.52 4.14-9 4.08zm76.56 8.82a11.42 11.42 0 0 1 8-1.36 11.8 11.8 0 0 1 11.58 11.34 9.12 9.12 0 0 0-6-1.12c-5.02.44-11.58 3.16-10.7 8 .72 4 6 3.46 10 2.38s7.18-3.04 8-6.9c4.86 3.54 6 9.74 6.2 15.8a.32.32 0 0 0 .64 0c.14-6.78-1.08-13.42-6.62-17.28a12.84 12.84 0 0 0-13.02-13.26 12 12 0 0 0-8 1.64c-.74.36-.4.9-.08.76zm18.24 14.34c-2.26 2.96-8.66 4.5-11.62 4-1.1-.18-2-.64-2.24-1.78-.72-4 6.18-6.18 10.3-6.32a7.64 7.64 0 0 1 4.76 1.22 6.28 6.28 0 0 1-1.2 2.88zM337.16 40c2.14-2.64.7-7.24-5.28-7.26-2.32 0-3.44 2.36-3.28 4.62.36 5.38 6.42 5.22 8.56 2.64zM330 37.26c0-1.32.62-3.04 2-3.02 3.22 0 4.7 1.5 4.7 3.16-.08 3.78-6.96 5.74-6.7-.14zM329.18 264c-17.58-7.02-25.74 26.96-40.1 56.16a17.34 17.34 0 0 0 .12 3.68c0 3.06.34 23.32 2.12 25.62.48.92 2.5 0 3.44-.58A156.82 156.82 0 0 0 317.24 332a.66.66 0 0 0 .16-.5c3.72-5.3 17.66-32.9 21.04-46.74 2.36-9.8.02-17.1-9.26-20.76zm6.28 25.4a75.38 75.38 0 0 1-26.82-8.76c4.68-8.86 10.46-18.96 20-15.16 10.62 4.22 10.4 12.96 6.82 23.86zm-33.28 52a10.5 10.5 0 0 0-2-1.32 12 12 0 0 0-8.74-.84c-.2-2.38-1.34-17.86-1.34-18 14.98 5.48 10.36 3.1 25.2 10.48-1.56 1.48-7.42 5.58-13.12 9.64zm10.32-57.88a66.94 66.94 0 0 0 6 2.9 174.88 174.88 0 0 0-12.12 22.52c-3.36 7.02-3.24 6.98-6.66 14.64-2-.64-4-1.24-6-1.84 2.16-4.3 17.52-35.74 18.78-38.26zm-12 40.26c6.5-11.66 13.12-26.16 18.8-37.1 2 .84 4 1.52 6 2.12-1.06 2-4.16 7.32-4.98 8.86s-9.04 17.74-9.62 18.98c-.92 2-3.44 7.58-4.22 9.36-2.04-.9-4-1.58-6.06-2.26zm6.7 2.48c1.22-2.22 6.24-11.54 6.86-12.74.94-1.86 11.42-23.28 12-24.52 1.84.52 3.78.96 5.02 1.2-3.66 10-14.2 29.26-18 38.76-3.46-1.62-4.24-2.02-5.96-2.74zm1.22-45.04 3.58 2a285.36 285.36 0 0 0-18.8 38.32l-3-.92c11.62-24.76 12.16-28 18.14-39.44zm8.24 49.48-3.02-1.44c3.26-6.4 13.46-22.82 18.12-38.92 1.12.2 2.22.38 3.28.52a290 290 0 0 1-18.46 39.8zM254 343.68a4.94 4.94 0 0 0 1.46-5.58 6.18 6.18 0 0 0-12-1.2c-2.56-1.66-5.34-3.42-8-5.1 2-2.66 7.88-1.48 8.48.7a.324.324 0 0 0 .64-.1c-.3-3.48-7.54-5.52-10.46-1.42-2.58-1.58-5.78-3.5-8.46-4.96 2.3-2 7.44-.88 8 1.2a.32.32 0 0 0 .62-.12c-.26-3.24-6.96-5.42-10-1.86a22.74 22.74 0 0 0-4-1.76 1.42 1.42 0 0 0-1.52.28c-5.06 6.3-22.12 22.66-30 24.56a1.14 1.14 0 0 0-.72 1.84 24.9 24.9 0 0 0 5.88 4.42c-2 2-3.56 3.8-4.72 5.1-.6.64-.92 12.88-.4 15.58a1.14 1.14 0 0 0 .48.64c2.52 1.72 34.98 15.76 38.3 13.88 2.22-1.26 28.72-28.84 29.14-29.68.64-1.32.42-10.12.38-13.64-.16-1.06-2.14-2.2-3.1-2.78zm-64 26.42 0-4.46c8.3 4 27.3 12.16 34.5 14.44 1.84.6 2 .52 2.96 0 5.5-3.52 24.92-25.4 28.48-28.74l0 4.22c-10.8 10.82-29.14 29.78-29.48 28.7-1.98-.12-34.74-13.36-36.46-14.16zm63.5-33.16a8 8 0 0 1 1.12 4 2.92 2.92 0 0 1-1.18 2.3c-1.68-1.12-4.86-3.2-8.62-5.64 2.06-4.06 6.64-4.12 8.6-.66zm-64 12.8c8.52-2.52 24.7-18.12 30.14-24.88a17.36 17.36 0 0 1 3.76 1.54c-2 3.72.14 7.8.9 7.22.42-.32-.34-.44-.46-2.4a8.22 8.22 0 0 1 .94-4.12c2.76 1.44 6 3.32 8.74 4.9-1.68 3.74.34 7.44 1.04 6.9s-.32-.42-.44-2.38a8.42 8.42 0 0 1 .72-3.74c2.82 1.66 5.7 3.38 8.34 5a6.72 6.72 0 0 0 .56 6.16.328.328 0 0 0 .52-.4 5.86 5.86 0 0 1 .1-5.04c4.66 2.84 8.42 5.22 9.58 6-.22.2-21.08 18.76-28.18 24.28-4.66-1.22-29.12-13.36-36.26-19.04zm.76 11.14c9.06 4 29.64 13.28 34.38 14.18.82.16 1.14.22 2.7-1.02 6.66-5.34 28.32-28 28.52-27.76a.56.56 0 0 1 0 .18l0 4c-4.46 3.58-29.26 29.62-29.66 28.38-2 0-34.5-13.26-36.16-14-.04-.84.14-3.08.22-3.96zm36.42 27.56c-2 1.14-32.46-11.24-36.54-13.76a30.82 30.82 0 0 1-.22-3.84c8.76 4.32 34.24 15.08 36.58 14.98 3.42-.18 27.6-27.4 29.32-29.3a13 13 0 0 1-.3 3.04c-.34.66-27.52 28.14-28.84 28.88zM60.98 275.7c.14 2.14.24 4 .24 5.74a1 1 0 0 0 1 1 1 1 0 0 0 1-1c0-1.86-.1-3.7-.24-5.88a1.002 1.002 0 0 0-2 .14zm304.74-40.1a.98.98 0 0 0-.92 1.06c.12 1.84.24 3.82.24 5.74a1 1 0 0 0 1 1 1 1 0 0 0 1-1c0-2-.12-4-.26-5.88a.98.98 0 0 0-1.06-.92zM55.8 270.72a1 1 0 0 0 0-2c-2.42 0-4.44.18-6.44.14a1.02 1.02 0 0 0-1.02 1 1 1 0 0 0 1 1c2.06.04 4.32-.04 6.46-.14zm303.72-41.04c-2.4 0-4.42.14-6.44.16a1 1 0 0 0 0 2c2.16 0 4.4 0 6.56-.16a1.002 1.002 0 0 0-.12-2zM60.44 258.36c.12 1.84.24 3.82.24 5.74a1.02 1.02 0 0 0 1 1 1 1 0 0 0 1-1c0-2-.12-4-.24-5.88a1.002 1.002 0 0 0-2 .14zm306.06-33.3c0-2-.12-4-.26-5.88a1.002 1.002 0 1 0-2 .14c.12 1.84.24 3.82.24 5.74a1 1 0 0 0 1 1 1.02 1.02 0 0 0 1.02-1zm-291.3 45.4a1 1 0 0 0 .96-1.04 1.04 1.04 0 0 0-1.04-.96c-2.42.1-4.44.18-6.46.14a1 1 0 0 0 0 2c2.14.04 4.38-.04 6.54-.14zm303.72-41.04c-2 .1-4.22.16-6.44.16a.98.98 0 0 0-1.02.98 1.02 1.02 0 0 0 1 1.02c2.28 0 4.12 0 6.54-.16a1 1 0 0 0 .96-1.04 1.06 1.06 0 0 0-1.04-.96zM29.24 211.2c.26.2 56.66-8.16 59.08-9.64a.98.98 0 0 0 .4-.86c0-2.58-3.38-26.8-5-32.84-.2-.74-.4-1.48-.86-1.74-3.06-1.84-56.98 8.32-60.2 10.4a.72.72 0 0 0-.34.48c-.68 2.42 5.18 33 6.92 34.2zm-5.7-33.72c3.84-1.74 52.78-10.7 58.38-10 1.36 3.5 5 29.14 5.24 32.9-2.78.82-57.16 10.16-57.36 10.2s-.22.28-.64-.98c-1.76-5.28-5.72-27.6-5.62-32.12z"></path><path d="M92.72 203.34a1.2 1.2 0 0 0 .14-.66c0-3.18-4.56-38.48-6.18-41.3a1.38 1.38 0 0 0-1.22-.66c-6.7-.82-63.22 10.22-66.94 12.8-.52.36-.44 1.26-.38 2.22.32 5.26 6 39.86 8 39.66.22 0 .14-.16-.38.9-3.12 6.42-9.04 26.98-8.92 31.12 0 1.74.4 4 2.12 3.88 12.34-1.52 72.84-11.12 90.24-14.7.68-.14 1.12-.76 1.1-1.78a14 14 0 0 0-1.52-4.86c-2.44-4.58-12.56-22.72-16.06-26.62zm-66.46 11.44c-1.56-2-7.3-36.46-6.86-40.28 4.4-2.28 60.16-13.06 66-12.18 1.6 4.4 5.74 36.18 6 40-7.08 2.44-56.1 10.36-65.14 12.46zm.88.6c1.68-.42 58.9-10 64.14-11.38 2.86 2.66 15.78 25.64 16.62 27.6-11.48 2-79.58 13.38-89.6 14.9.14-6.06 6.36-27.24 8.84-31.12z"></path><path d="M34.66 236.12c1.74-.26 38.66-4.7 52-8.32a.32.32 0 0 0-.16-.62c-2.62.54-34.58 4.8-51.88 8.32a.32.32 0 1 0 .04.62zM61.64 96.96a39.58 39.58 0 0 0-1.88 5.2 1.14 1.14 0 0 0 .22.8C62 106 82.7 129.34 88.1 132.62c.74.46 1.62.78 2.16.12a36.28 36.28 0 0 1 14.86-10.98 49.02 49.02 0 0 1 14.72-2.78c4-.36 4.7-.76 6.24-3.38a33.16 33.16 0 0 1 7.12-9.16 56.26 56.26 0 0 1 12.18-8.12 1.02 1.02 0 0 0 .48-1.16 21.62 21.62 0 0 0-2.66-4.84c.72-.24 1.52-.46 1.52-1.18 0-2-17.44-27.24-22.28-32-.5-.5-1.22-1.16-1.88-1.12-10 .56-19.74 10-25.38 18.24-6.46-.24-10.64-.82-18 2.28a41 41 0 0 0-13.76 9.56c-.6.62-4.68 4.94-4.74 5.28s.06.34 2.96 3.58zm80-.56c-8.34 1.42-13.66 8.36-17.58 15.9-1.74 3.36-1.58 3.52-3.42 3.48a51.44 51.44 0 0 0-9.64.36 36.76 36.76 0 0 0-6.88 1.72c-5.08 1.8-10.9 7.56-14 11.84a.78.78 0 0 1-1.16.1c-6.5-6.7-18-18.46-23.78-25.22-.28-.3.2-.74.48-.42 3.74 4 13.4 13.58 23.76 24 3.5-4.46 8.9-9.86 14.24-11.74a37.22 37.22 0 0 1 9.02-2 57.18 57.18 0 0 1 8.66 0c1.18-1.36 7.02-16.8 20.26-18.52a.32.32 0 0 1 .02.5zm-21.1-36.76c4 2.8 20.28 26.9 22.4 31.12a57.26 57.26 0 0 0-10.6 4.58 24 24 0 0 0-12.68 16.28c-7.18-11.68-17.2-24.54-23.86-34 .4-.26 11.64-17.2 24.74-17.98zm-42.92 20c7.3-2.94 11.34-2.26 17.38-2 6 10.24 16.78 24.68 23.88 34.14a27.06 27.06 0 0 0-19.34 2.66c-3.54 2-7.86 6.8-10.52 9.78-3.84-3.08-26-26.68-29.56-30.68 5.48-6.2 10.54-10.86 18.16-13.98zm-36.6 50.86a3.12 3.12 0 0 0-3.4-.12 3.142 3.142 0 1 0 2.56 5.74 3.04 3.04 0 0 0 .84-5.62zm-1.32 4c-1.4.44-2.24 0-2.58-.68-.64-1.42.16-3.6 2.24-2.96 1.46.54 2.64 3 .34 3.74zm103.02-95.52c.58 1.18 3.28.74 4.46.36.62-.2 1.02-.42 1.08-1.02.18-1.5.38-14.5-.3-15.76a.76.76 0 0 0-.74-.4 21.62 21.62 0 0 0-6.3.92c-.82.5 1.08 14.58 1.8 15.9zm-1.38-15.42a29.28 29.28 0 0 1 5.58-.26c.12 1.48-.2 14.3-.22 14.5a6 6 0 0 1-2.64.32c-.14-.46-.38-1.7-.68-3.26a107.26 107.26 0 0 1-2.04-11.3zM39.08 113.62a1.36 1.36 0 0 0 1.24 0 4.56 4.56 0 0 0 1.76-2 .82.82 0 0 0-.12-.8C41 109.68 30.52 97.54 29.24 98.3a36.54 36.54 0 0 0-4.46 3.4.54.54 0 0 0-.18.4c-.04 1.04 11.6 10.36 14.48 11.52zm-9.6-14.8c1.46 1.06 6.38 7.14 10.94 12.52a3.54 3.54 0 0 1-.72.82A124.1 124.1 0 0 1 26 102a34 34 0 0 1 3.48-3.18zM60.9 54.7c.44-7.76 4.96-11.36 9.68-12.28-1.34 4.92-1.12 11.32 3.74 12.14 2.32.38 3.46-.82 5.14-2.22 7.18-6 1.38-12-6.72-11.58 3.02-8.28 10-15.02 19.26-15.24a.32.32 0 0 0 0-.64c-10-.2-17.86 7-20.96 16-5.34.92-10.64 4.92-10.78 13.7a.326.326 0 1 0 .64.12zm11.38-12.52c2.98-.2 7.42.72 8.64 3.42.7 1.54 0 3.44-2.48 5.52a9.8 9.8 0 0 1-2.28 1.7c-3 1.28-6.32-2.42-3.88-10.64zM78 325.04A15 15 0 0 0 59.54 336 15.594 15.594 0 0 0 90 342.7a15.04 15.04 0 0 0-12-17.66zm6.18 16.3a13.82 13.82 0 0 1-14.68 10.4 13.76 13.76 0 0 1-8.48-15.54 14 14 0 0 1 14.76-10.84 14 14 0 0 1 8.32 15.98z"></path><path d="M104.64 330.74a10.78 10.78 0 0 0-5.42-.42 27.7 27.7 0 0 0-2.76-4.9c1.3-1.18 4.86-4.46 4-6a44.16 44.16 0 0 0-10.76-9.3 14.72 14.72 0 0 0-5.5-1.78c-1.28.18-4.32 5.16-5 6.28-.44 0-2-.5-2.12-.56 0-1.44-.42-6.64-1.72-7.24a20.54 20.54 0 0 0-4.5-1.1c-1.42-.22-14.2 2.12-15.14 3.84-.62 1.16.82 5.54 1.24 6.76a26.44 26.44 0 0 0-3.1 2c-2 1.42-1.46 1.36-1.82 1.2a4.42 4.42 0 0 0-1.38-.4 8 8 0 0 0-5.3-1c-1.84.6-6.18 10.48-6.88 13.02a4 4 0 0 0-.18 2c.48 1.32 3.68 2.38 5.02 2.8a27.26 27.26 0 0 0 0 7.76c-1.76.48-5.42 1.56-5.22 3.36s4.88 13.68 6.82 14.62a8.74 8.74 0 0 0 7.04.66 16.42 16.42 0 0 0 1.88-1.1c.8.6 1.64 1.14 2.5 1.66-.62 1.54-2 4.98-1.56 6.54.22.82.88 1.08 1.8 1.42 2.54.92 16.22 4.2 18.3 3.84.78-.12 1.2-.94 1.44-1.72a26.8 26.8 0 0 0 .78-5.42 30.46 30.46 0 0 0 3.06-.46 11.54 11.54 0 0 0 2.34 2.9c1.02.72 1.88.36 3.04-.38.56.72 1.4 1.72 2.3 1.82 2.26.26 11.6-8.54 12.56-10.34.8-1.5-2.12-4.18-3.42-5.36a27.3 27.3 0 0 0 3.28-6.84 23.12 23.12 0 0 0 4.36.24c.66 0 1.42-.24 1.7-.86 1.22-2.78.86-13.32 0-16-.12-.78-1.02-1.3-1.68-1.54zm.48 1.84c.68 2.6.9 12.42-.1 14.96a18 18 0 0 1-5.18-.24.74.74 0 0 0-.84.54 25.66 25.66 0 0 1-3.66 7.56.74.74 0 0 0 .12 1.02 14.96 14.96 0 0 1 3.52 4c-1 1.64-8.82 8.8-10.98 9.4-.32 0-1.2-1.2-1.42-1.52a31.7 31.7 0 0 1-2-3.46.78.78 0 0 0-.98-.38c-5.8 2.18-8 .9-8 2.34a19.7 19.7 0 0 1-1.04 6.34 63.66 63.66 0 0 1-13.8-3.08 18 18 0 0 1 1.76-6.14c.6-1.34-1.8-.96-6.28-5.52a.78.78 0 0 0-1.06 0c-2 1.64-4.6 3.24-5.12 2.98-1.02-.5-5.72-11.16-6-13.32a12.38 12.38 0 0 1 4.74-2 .78.78 0 0 0 .56-.86 25.1 25.1 0 0 1 0-8.56.7.7 0 0 0-.52-.8 18.44 18.44 0 0 1-4.32-1.74c-.44-.32-.4-.3-.36-.64a42.9 42.9 0 0 1 6.14-13.06c1.08-.3 4 1.84 5 2.6a.56.56 0 0 0 .78 0 26.36 26.36 0 0 1 2.96-2.64c3.04-2.3 3.86-2 3.6-2.8a16.86 16.86 0 0 1-1.52-6.38 3.54 3.54 0 0 1 1.04-.6 41.42 41.42 0 0 1 5.74-1.8 33.3 33.3 0 0 1 7.26-1.18c.42.18.8 2 .9 2.56.74 4 .24 4.82.82 4.88 5.7.56 6.86 2.14 7.26 1.44a34.92 34.92 0 0 1 3.86-5.46c.42-.42.4-.62 1.66.1a44.68 44.68 0 0 1 10 8.94c.3.52-2.3 3.28-4.2 4.9-.66.58.28.84 2 4.12s1.32 4.2 2.24 4a19.1 19.1 0 0 1 5.42-.5zM382.7 165.46a52.52 52.52 0 0 0-13.08-3.46c-3.28-.52-7.14-1.04-10.4-1.46 3.14-4.44 12.44-15.68 14-18.42.44-.74-.4-1.78-1.02-2.4-3.48-3.72-10.2-5.12-15.36-5.92-2.96-.48-15.32-2-17.42-1-2.52 1.2-21.16 29.2-21.72 33.46 0 .72.24 1 .94 1.26 2.94 1.08 16.2 2.76 19.16 3.46-4 7-21.78 30.66-23.52 34-.42.84-.16 1.34.34 1.5a37.78 37.78 0 0 0 5.54 1.72c.72.22 2.3-.76 4.6-2.16 10.32-6.2 54.6-35.44 58-39.22a.9.9 0 0 0-.06-1.36zm-42.98 24c-17 11.22-22.74 14.5-22.94 14.64 2.74-4.18 19.76-27.5 22.68-33.08a.8.8 0 0 0-.54-1.12c-2-.72-16.56-2.28-20-3.5.44-3.72 18.6-31.84 20.8-32.96s23.54 1.42 27.54 4.28c-2.1 4.1-13.7 18.46-15.58 21.8-.38.68-.5 1.34.24 1.52s19.54 2.38 23.64 3.72c-5 4.18-30.24 20.94-35.84 24.62zM211.42 67.18c0 .18.12.4.42 1.56a1.02 1.02 0 0 0 1.24.68 1 1 0 0 0 .68-1.24c-.2-.78-.38-1.44-.5-1.76a1 1 0 0 0-1.84.76z"></path></g></g></svg>